<svg id="Layer_1" data-name="Layer 1" xmlns="http://www.w3.org/2000/svg" viewBox="0 0 1920 1080"><path d="M786.91,439.2v46.62H781.6V462.71H759.8v23.11h-5.32V439.2h5.32v21h21.8v-21Z"/><path d="M898.34,462.67c0,19.74-16.22,24.44-25.53,24.44s-25.54-4.7-25.54-24.44c0-17.21,12.24-24.38,25.54-24.38S898.34,445.46,898.34,462.67Zm-5.45,0c0-19.24-12.88-21.86-20.08-21.86s-20.09,2.62-20.09,21.86c0,19.5,11.73,21.92,20.09,21.92S892.89,482.17,892.89,462.67Z"/><path d="M994.07,439.2v29.37c0,12.23-6.14,18.54-18,18.54-8.73,0-17.36-3.44-17.36-18.54V439.2H964v29.37c0,5.28.66,16,13.17,16,8.47,0,14.4-4.64,14.4-16.7V439.2Z"/><path d="M1065.87,485.11c5.19,0,11.43-2.62,11.43-9.45,0-8.58-9.06-10.31-11.81-11.7-4.75-2.41-11.89-4.12-11.89-13.37s8.19-12.8,14.09-12.8a22,22,0,0,1,10.43,2.77v2.52a19.7,19.7,0,0,0-10.4-2.77c-5.57,0-10,3.06-10,8.31s3.37,7.83,8.93,10.31c4.72,2.12,14.9,4.11,14.9,14.91,0,8.23-7.62,13.79-15.66,13.79s-12.55-3.62-12.56-3.62v-2.52C1055.93,483.51,1059.54,485.11,1065.87,485.11Z"/><path d="M1147.18,441.72V460.2h16.35v2.53h-16.35v20.6h18.34v2.49h-23.65V439.2h23.65v2.52Z"/><path d="M943.33,540.22c0,19.74-16.23,24.44-25.54,24.44s-25.54-4.7-25.54-24.44c0-17.21,12.24-24.38,25.54-24.38S943.33,523,943.33,540.22Zm-5.45,0c0-19.24-12.89-21.86-20.09-21.86S897.7,521,897.7,540.22c0,19.5,11.73,21.92,20.09,21.92S937.88,559.72,937.88,540.22Z"/><path d="M1009.41,519.27v18.48h16.35v2.53h-16.35v23.09h-5.31V516.74h23.65v2.53Z"/><path d="M526,596.3v18.48h16.34v2.53H526v23.1h-5.31V593.78h23.64v2.52Z"/><path d="M630.61,640.41,613.9,619.35H610v21.06h-5.31V593.78h14.1c3.79,0,14.91,1.4,14.91,11.65,0,9.38-7.94,12.45-13.45,13.45l17.09,21.53ZM610,616.83h4.07c8.7,0,14.05-2.28,14.05-10.58,0-8.13-4.52-10-12.15-10h-6Z"/><path d="M725.31,622.92H706.07l-7.78,17.49h-2.76l21.15-47.53h1.47l20.37,47.53H732.8Zm-1.08-2.52-8.36-19.51-8.68,19.51Z"/><path d="M833.26,616.65v21.13a31.67,31.67,0,0,1-15.56,3.92c-9.31,0-24.86-4.7-24.86-24.45,0-17.2,12.24-24.37,25.54-24.37A45.49,45.49,0,0,1,832,594.67v2.52s-4.85-1.79-13.62-1.79c-7.81,0-20.09,2.61-20.09,21.85,0,17.42,8.52,21.93,20.09,21.93A30.61,30.61,0,0,0,828,637.6V619.17h-6.64v-2.52Z"/><path d="M920.32,640.41l-16.71-21.06h-3.92v21.06h-5.31V593.78h14.1c3.79,0,14.91,1.4,14.91,11.65,0,9.38-7.95,12.45-13.45,13.45L927,640.41Zm-20.63-23.58h4.07c8.7,0,14-2.28,14-10.58,0-8.13-4.51-10-12.14-10h-6Z"/><path d="M1015,622.92H995.78L988,640.41h-2.76l21.14-47.53h1.48l20.37,47.53h-5.72Zm-1.08-2.52-8.36-19.51L996.9,620.4Z"/><path d="M1128.65,641.7h-1.5l-36.44-40.36v39.07h-2.52V592.88h1.5l36.44,40.36V593.78h2.52Z"/><path d="M1228.21,637.78s-5,3.92-14.3,3.92-24.85-4.7-24.85-24.45c0-17.2,12.23-24.37,25.53-24.37,8.46,0,13.62,3,13.62,3v2.53s-4.85-3.06-13.62-3.06c-7.2,0-20.08,2.61-20.08,21.85,0,19.51,11.78,21.89,20.08,21.89,8.61,0,13.62-3.88,13.62-3.88Z"/><path d="M1294.05,596.3v18.48h16.35v2.53h-16.35v20.61h18.33v2.49h-23.64V593.78h23.64v2.52Z"/><path d="M1383.7,639.69c5.19,0,11.43-2.61,11.43-9.44,0-8.58-9.06-10.32-11.81-11.71-4.75-2.4-11.89-4.12-11.89-13.37s8.19-12.8,14.09-12.8a22,22,0,0,1,10.43,2.77v2.52a19.7,19.7,0,0,0-10.4-2.77c-5.57,0-10,3.06-10,8.32s3.38,7.83,8.93,10.31c4.72,2.11,14.9,4.1,14.9,14.91,0,8.22-7.62,13.78-15.66,13.78s-12.55-3.61-12.56-3.61v-2.52C1373.76,638.09,1377.37,639.69,1383.7,639.69Z"/></svg>